<?xml version="1.0" standalone="no"?>
<!DOCTYPE svg PUBLIC "-//W3C//DTD SVG 20010904//EN"
 "http://www.w3.org/TR/2001/REC-SVG-20010904/DTD/svg10.dtd">
<svg version="1.0" xmlns="http://www.w3.org/2000/svg"
 width="300.000000pt" height="300.000000pt" viewBox="0 0 300.000000 300.000000"
 preserveAspectRatio="xMidYMid meet">
<metadata>
Created by potrace 1.10, written by Peter Selinger 2001-2011
</metadata>
<g transform="translate(0.000000,300.000000) scale(0.100000,-0.100000)"
fill="#000000" stroke="none">
<path d="M2162 2810 c-104 -37 -180 -109 -230 -218 -24 -53 -26 -70 -32 -242
-6 -177 -8 -187 -35 -243 -40 -81 -95 -127 -234 -196 -66 -34 -125 -70 -131
-81 -14 -27 -4 -57 25 -76 23 -15 30 -13 147 46 143 73 147 75 206 132 106
101 132 176 141 413 6 156 10 185 28 221 34 65 135 144 183 144 6 0 10 -42 10
-114 0 -85 3 -116 14 -125 8 -7 52 -13 98 -15 60 -3 96 -10 125 -24 43 -23 97
-78 108 -112 10 -31 45 -40 159 -40 142 0 150 -11 125 -159 -13 -75 -38 -127
-77 -156 -24 -18 -47 -21 -205 -25 -236 -7 -217 17 -217 -275 0 -265 -18 -392
-81 -580 l-40 -120 76 -290 c72 -274 78 -292 112 -327 57 -59 44 -69 -83 -66
l-105 3 -124 320 -124 320 -1 145 c0 163 -9 190 -59 190 -54 0 -61 -20 -61
-191 l0 -154 116 -299 c63 -165 120 -308 125 -318 10 -18 5 -19 -97 -16 l-107
3 -12 46 c-23 93 -104 188 -201 237 -46 23 -151 45 -197 40 l-31 -3 -22 112
c-25 130 -49 184 -109 251 -57 64 -143 108 -255 133 -94 20 -121 17 -134 -17
-20 -53 4 -75 107 -97 176 -38 249 -115 278 -292 7 -44 13 -82 13 -83 1 -2
-82 -3 -183 -2 -204 1 -231 -6 -231 -58 0 -58 -9 -57 347 -62 369 -6 366 -5
445 -87 31 -31 68 -96 68 -118 0 -3 -192 -5 -427 -5 -334 0 -443 4 -496 15
-211 44 -370 207 -414 423 -38 184 37 401 183 530 33 30 132 89 271 162 200
105 218 117 221 143 4 33 -22 67 -51 67 -11 0 -117 -51 -236 -112 -195 -102
-223 -120 -294 -188 -73 -72 -78 -74 -84 -52 -10 42 4 165 27 224 30 80 77
146 141 195 98 76 109 89 109 128 0 29 -8 45 -34 71 -40 40 -73 43 -193 18
-230 -47 -419 -216 -488 -436 -25 -81 -35 -202 -14 -165 6 11 20 51 31 90 77
278 298 469 554 479 59 3 68 0 85 -21 27 -33 24 -49 -13 -80 -80 -66 -168
-162 -192 -209 -72 -142 -71 -342 2 -342 8 0 41 25 73 55 33 30 78 67 102 83
58 40 395 212 413 212 41 0 -9 -34 -192 -130 -184 -96 -205 -110 -280 -185
-118 -118 -174 -233 -189 -392 -27 -271 173 -543 446 -608 52 -12 145 -15 495
-15 l431 0 21 23 c29 31 28 52 -8 113 -32 56 -71 93 -134 127 -39 21 -56 22
-355 27 -239 4 -315 8 -319 18 -3 9 32 12 151 12 182 0 213 5 234 37 14 20 14
34 4 101 -30 185 -122 287 -297 327 -74 18 -97 31 -71 41 23 8 151 -22 206
-50 60 -31 126 -103 157 -171 14 -29 32 -93 40 -142 20 -119 35 -133 142 -143
144 -13 253 -91 301 -217 36 -95 48 -103 156 -103 104 0 135 13 135 59 0 15
-50 155 -112 311 l-111 285 -4 145 c-2 90 0 151 7 160 21 30 30 -14 30 -146
l0 -131 96 -249 c53 -137 107 -278 121 -314 13 -35 36 -77 50 -92 26 -27 31
-28 124 -28 82 0 100 3 123 21 35 27 33 54 -8 114 -28 40 -44 87 -81 230 -26
99 -58 220 -71 269 l-23 89 29 86 c67 195 83 293 89 568 4 152 10 256 16 262
6 6 77 12 165 13 144 3 158 5 200 28 69 39 99 90 118 203 15 89 15 98 0 131
-28 57 -58 70 -174 74 l-103 4 -41 53 c-56 73 -118 105 -223 113 l-82 7 -5 95
c-8 143 -28 166 -116 126 -69 -32 -138 -105 -164 -173 -16 -43 -20 -78 -20
-176 0 -156 -13 -234 -51 -310 -46 -90 -109 -145 -250 -217 -66 -34 -123 -59
-126 -56 -15 15 16 40 108 87 125 62 197 127 241 217 31 63 32 68 38 246 6
166 8 186 32 237 14 31 42 75 63 98 50 55 148 103 217 105 l53 1 5 -102 c6
-123 21 -147 100 -156 75 -9 134 -40 204 -107 l63 -60 77 0 c92 0 132 -15 173
-64 52 -64 58 -80 40 -118 -8 -18 -20 -60 -27 -93 -21 -102 -61 -160 -140
-201 -28 -15 -63 -19 -173 -22 -183 -5 -177 2 -177 -209 0 -244 -20 -379 -90
-599 -16 -51 -27 -101 -23 -115 24 -107 127 -488 136 -504 5 -11 23 -36 39
-55 39 -48 39 -101 -1 -141 l-29 -29 -789 0 c-865 0 -853 0 -976 61 -152 75
-251 188 -308 349 -26 76 -41 95 -127 157 -107 79 -179 188 -227 348 -32 107
-45 126 -45 65 1 -158 130 -373 283 -470 48 -30 57 -41 67 -80 39 -156 184
-331 330 -402 144 -70 109 -68 1004 -68 l805 0 36 31 c65 58 66 138 2 212 -30
35 -40 66 -100 295 l-66 257 31 90 c60 174 79 297 85 542 l6 222 141 3 c125 3
146 6 186 26 93 49 141 121 160 238 24 148 13 210 -47 266 -41 39 -74 48 -174
48 -49 0 -89 4 -89 8 0 5 -15 26 -34 48 -50 58 -143 105 -222 112 l-64 5 0
116 c0 78 -4 121 -12 129 -18 18 -116 14 -176 -8z"/>
<path d="M2357 2292 c-21 -23 -21 -41 -1 -70 29 -42 104 -18 104 35 0 47 -71
71 -103 35z"/>
<path d="M462 1810 c-159 -57 -288 -188 -352 -355 -16 -42 -24 -90 -28 -160
-5 -115 10 -193 58 -290 33 -69 118 -168 162 -191 28 -15 32 -15 49 3 11 11
25 51 34 100 8 44 24 106 35 137 18 55 18 56 -1 123 -12 45 -19 99 -19 159 0
150 44 259 154 382 31 34 56 66 56 71 0 17 -38 41 -66 41 -16 -1 -53 -9 -82
-20z m71 -64 c-68 -63 -125 -154 -154 -246 -26 -83 -28 -230 -4 -310 22 -72
22 -93 -5 -164 -12 -33 -24 -90 -27 -128 -3 -37 -9 -68 -13 -68 -17 0 -112
114 -144 173 -93 166 -87 390 13 545 68 105 183 196 295 232 98 31 103 26 39
-34z"/>
<path d="M1277 1722 c-23 -25 -21 -58 3 -82 26 -26 46 -25 75 5 30 29 31 49 5
75 -25 25 -62 26 -83 2z"/>
</g>
</svg>
